<?xml version="1.0" standalone="no"?>
<svg xmlns="http://www.w3.org/2000/svg" width="500" height="500"><defs><clipPath id="clip-path-dot-color"><path d="M 18 146v 16h 8a 8 8, 0, 0, 0, 0 -16" transform="rotate(180,26,154)"/><circle cx="26" cy="186" r="8" transform="rotate(0,26,186)"/><path d="M 18 210v 16h 8a 8 8, 0, 0, 0, 0 -16" transform="rotate(180,26,218)"/><path d="M 18 274v 16h 16v -8a 8 8, 0, 0, 0, -8 -8" transform="rotate(-90,26,282)"/><rect x="18" y="290" width="16" height="16" transform="rotate(0,26,298)"/><path d="M 18 306v 16h 16v -8a 8 8, 0, 0, 0, -8 -8" transform="rotate(180,26,314)"/><rect x="34" y="146" width="16" height="16" transform="rotate(0,42,154)"/><path d="M 34 162v 16h 8a 8 8, 0, 0, 0, 0 -16" transform="rotate(90,42,170)"/><path d="M 34 210v 16h 8a 8 8, 0, 0, 0, 0 -16" transform="rotate(0,42,218)"/><path d="M 34 274v 16h 8a 8 8, 0, 0, 0, 0 -16" transform="rotate(0,42,282)"/><path d="M 34 306v 16h 8a 8 8, 0, 0, 0, 0 -16" transform="rotate(0,42,314)"/><rect x="50" y="146" width="16" height="16" transform="rotate(0,58,154)"/><circle cx="58" cy="266" r="8" transform="rotate(0,58,266)"/><circle cx="58" cy="330" r="8" transform="rotate(0,58,330)"/><rect x="66" y="146" width="16" height="16" transform="rotate(0,74,154)"/><path d="M 66 178v 16h 16v -8a 8 8, 0, 0, 0, -8 -8" transform="rotate(-90,74,186)"/><path d="M 66 194v 16h 8a 8 8, 0, 0, 0, 0 -16" transform="rotate(90,74,202)"/><path d="M 66 226v 16h 8a 8 8, 0, 0, 0, 0 -16" transform="rotate(180,74,234)"/><path d="M 66 274v 16h 8a 8 8, 0, 0, 0, 0 -16" transform="rotate(180,74,282)"/><path d="M 66 306v 16h 8a 8 8, 0, 0, 0, 0 -16" transform="rotate(180,74,314)"/><path d="M 82 146v 16h 16v -8a 8 8, 0, 0, 0, -8 -8" transform="rotate(0,90,154)"/><rect x="82" y="162" width="16" height="16" transform="rotate(0,90,170)"/><rect x="82" y="178" width="16" height="16" transform="rotate(0,90,186)"/><path d="M 82 226v 16h 16v -8a 8 8, 0, 0, 0, -8 -8" transform="rotate(0,90,234)"/><path d="M 82 242v 16h 16v -8a 8 8, 0, 0, 0, -8 -8" transform="rotate(180,90,250)"/><rect x="82" y="274" width="16" height="16" transform="rotate(0,90,282)"/><path d="M 82 306v 16h 16v -8a 8 8, 0, 0, 0, -8 -8" transform="rotate(0,90,314)"/><path d="M 82 322v 16h 16v -8a 8 8, 0, 0, 0, -8 -8" transform="rotate(180,90,330)"/><path d="M 98 162v 16h 16v -8a 8 8, 0, 0, 0, -8 -8" transform="rotate(0,106,170)"/><rect x="98" y="178" width="16" height="16" transform="rotate(0,106,186)"/><path d="M 98 210v 16h 8a 8 8, 0, 0, 0, 0 -16" transform="rotate(180,106,218)"/><rect x="98" y="242" width="16" height="16" transform="rotate(0,106,250)"/><rect x="98" y="258" width="16" height="16" transform="rotate(0,106,266)"/><rect x="98" y="274" width="16" height="16" transform="rotate(0,106,282)"/><path d="M 98 290v 16h 8a 8 8, 0, 0, 0, 0 -16" transform="rotate(90,106,298)"/><path d="M 98 322v 16h 16v -8a 8 8, 0, 0, 0, -8 -8" transform="rotate(0,106,330)"/><path d="M 98 338v 16h 16v -8a 8 8, 0, 0, 0, -8 -8" transform="rotate(180,106,346)"/><path d="M 114 146v 16h 8a 8 8, 0, 0, 0, 0 -16" transform="rotate(180,122,154)"/><rect x="114" y="178" width="16" height="16" transform="rotate(0,122,186)"/><rect x="114" y="210" width="16" height="16" transform="rotate(0,122,218)"/><rect x="114" y="242" width="16" height="16" transform="rotate(0,122,250)"/><path d="M 114 274v 16h 8a 8 8, 0, 0, 0, 0 -16" transform="rotate(0,122,282)"/><path d="M 114 306v 16h 8a 8 8, 0, 0, 0, 0 -16" transform="rotate(180,122,314)"/><path d="M 114 338v 16h 8a 8 8, 0, 0, 0, 0 -16" transform="rotate(0,122,346)"/><path d="M 130 146v 16h 16v -8a 8 8, 0, 0, 0, -8 -8" transform="rotate(0,138,154)"/><rect x="130" y="162" width="16" height="16" transform="rotate(0,138,170)"/><rect x="130" y="178" width="16" height="16" transform="rotate(0,138,186)"/><rect x="130" y="194" width="16" height="16" transform="rotate(0,138,202)"/><rect x="130" y="210" width="16" height="16" transform="rotate(0,138,218)"/><rect x="130" y="226" width="16" height="16" transform="rotate(0,138,234)"/><rect x="130" y="242" width="16" height="16" transform="rotate(0,138,250)"/><path d="M 130 290v 16h 8a 8 8, 0, 0, 0, 0 -16" transform="rotate(-90,138,298)"/><rect x="130" y="306" width="16" height="16" transform="rotate(0,138,314)"/><path d="M 130 322v 16h 16v -8a 8 8, 0, 0, 0, -8 -8" transform="rotate(180,138,330)"/><path d="M 146 34v 16h 16v -8a 8 8, 0, 0, 0, -8 -8" transform="rotate(-90,154,42)"/><path d="M 146 50v 16h 16v -8a 8 8, 0, 0, 0, -8 -8" transform="rotate(180,154,58)"/><circle cx="154" cy="90" r="8" transform="rotate(0,154,90)"/><path d="M 146 114v 16h 8a 8 8, 0, 0, 0, 0 -16" transform="rotate(-90,154,122)"/><path d="M 146 130v 16h 8a 8 8, 0, 0, 0, 0 -16" transform="rotate(90,154,138)"/><path d="M 146 178v 16h 16v -8a 8 8, 0, 0, 0, -8 -8" transform="rotate(0,154,186)"/><path d="M 146 194v 16h 16v -8a 8 8, 0, 0, 0, -8 -8" transform="rotate(90,154,202)"/><path d="M 146 226v 16h 16v -8a 8 8, 0, 0, 0, -8 -8" transform="rotate(0,154,234)"/><rect x="146" y="242" width="16" height="16" transform="rotate(0,154,250)"/><rect x="146" y="258" width="16" height="16" transform="rotate(0,154,266)"/><path d="M 146 274v 16h 8a 8 8, 0, 0, 0, 0 -16" transform="rotate(90,154,282)"/><rect x="146" y="306" width="16" height="16" transform="rotate(0,154,314)"/><rect x="146" y="322" width="16" height="16" transform="rotate(0,154,330)"/><circle cx="154" cy="378" r="8" transform="rotate(0,154,378)"/><path d="M 146 402v 16h 8a 8 8, 0, 0, 0, 0 -16" transform="rotate(-90,154,410)"/><rect x="146" y="418" width="16" height="16" transform="rotate(0,154,426)"/><rect x="146" y="434" width="16" height="16" transform="rotate(0,154,442)"/><rect x="146" y="450" width="16" height="16" transform="rotate(0,154,458)"/><path d="M 146 466v 16h 16v -8a 8 8, 0, 0, 0, -8 -8" transform="rotate(180,154,474)"/><path d="M 162 18v 16h 16v -8a 8 8, 0, 0, 0, -8 -8" transform="rotate(-90,170,26)"/><rect x="162" y="34" width="16" height="16" transform="rotate(0,170,42)"/><rect x="162" y="50" width="16" height="16" transform="rotate(0,170,58)"/><path d="M 162 98v 16h 8a 8 8, 0, 0, 0, 0 -16" transform="rotate(180,170,106)"/><path d="M 162 146v 16h 8a 8 8, 0, 0, 0, 0 -16" transform="rotate(-90,170,154)"/><path d="M 162 162v 16h 8a 8 8, 0, 0, 0, 0 -16" transform="rotate(90,170,170)"/><circle cx="170" cy="218" r="8" transform="rotate(0,170,218)"/><rect x="162" y="242" width="16" height="16" transform="rotate(0,170,250)"/><path d="M 162 306v 16h 16v -8a 8 8, 0, 0, 0, -8 -8" transform="rotate(0,170,314)"/><path d="M 162 322v 16h 16v -8a 8 8, 0, 0, 0, -8 -8" transform="rotate(90,170,330)"/><circle cx="170" cy="362" r="8" transform="rotate(0,170,362)"/><path d="M 162 386v 16h 8a 8 8, 0, 0, 0, 0 -16" transform="rotate(180,170,394)"/><path d="M 162 418v 16h 8a 8 8, 0, 0, 0, 0 -16" transform="rotate(0,170,426)"/><rect x="162" y="466" width="16" height="16" transform="rotate(0,170,474)"/><rect x="178" y="18" width="16" height="16" transform="rotate(0,186,26)"/><rect x="178" y="34" width="16" height="16" transform="rotate(0,186,42)"/><path d="M 178 50v 16h 16v -8a 8 8, 0, 0, 0, -8 -8" transform="rotate(90,186,58)"/><path d="M 178 98v 16h 16v -8a 8 8, 0, 0, 0, -8 -8" transform="rotate(0,186,106)"/><rect x="178" y="114" width="16" height="16" transform="rotate(0,186,122)"/><path d="M 178 130v 16h 8a 8 8, 0, 0, 0, 0 -16" transform="rotate(90,186,138)"/><circle cx="186" cy="186" r="8" transform="rotate(0,186,186)"/><path d="M 178 242v 16h 16v -8a 8 8, 0, 0, 0, -8 -8" transform="rotate(0,186,250)"/><rect x="178" y="258" width="16" height="16" transform="rotate(0,186,266)"/><rect x="178" y="274" width="16" height="16" transform="rotate(0,186,282)"/><path d="M 178 290v 16h 16v -8a 8 8, 0, 0, 0, -8 -8" transform="rotate(180,186,298)"/><path d="M 178 386v 16h 16v -8a 8 8, 0, 0, 0, -8 -8" transform="rotate(0,186,394)"/><path d="M 178 402v 16h 16v -8a 8 8, 0, 0, 0, -8 -8" transform="rotate(180,186,410)"/><path d="M 178 450v 16h 16v -8a 8 8, 0, 0, 0, -8 -8" transform="rotate(-90,186,458)"/><path d="M 178 466v 16h 16v -8a 8 8, 0, 0, 0, -8 -8" transform="rotate(90,186,474)"/><path d="M 194 18v 16h 16v -8a 8 8, 0, 0, 0, -8 -8" transform="rotate(0,202,26)"/><path d="M 194 34v 16h 16v -8a 8 8, 0, 0, 0, -8 -8" transform="rotate(90,202,42)"/><path d="M 194 66v 16h 16v -8a 8 8, 0, 0, 0, -8 -8" transform="rotate(-90,202,74)"/><path d="M 194 82v 16h 8a 8 8, 0, 0, 0, 0 -16" transform="rotate(90,202,90)"/><path d="M 194 146v 16h 16v -8a 8 8, 0, 0, 0, -8 -8" transform="rotate(-90,202,154)"/><path d="M 194 162v 16h 8a 8 8, 0, 0, 0, 0 -16" transform="rotate(90,202,170)"/><path d="M 194 210v 16h 16v -8a 8 8, 0, 0, 0, -8 -8" transform="rotate(-90,202,218)"/><path d="M 194 226v 16h 8a 8 8, 0, 0, 0, 0 -16" transform="rotate(90,202,234)"/><rect x="194" y="290" width="16" height="16" transform="rotate(0,202,298)"/><circle cx="202" cy="330" r="8" transform="rotate(0,202,330)"/><path d="M 194 354v 16h 8a 8 8, 0, 0, 0, 0 -16" transform="rotate(-90,202,362)"/><path d="M 194 370v 16h 16v -8a 8 8, 0, 0, 0, -8 -8" transform="rotate(180,202,378)"/><path d="M 194 402v 16h 16v -8a 8 8, 0, 0, 0, -8 -8" transform="rotate(0,202,410)"/><path d="M 194 418v 16h 8a 8 8, 0, 0, 0, 0 -16" transform="rotate(90,202,426)"/><path d="M 194 450v 16h 8a 8 8, 0, 0, 0, 0 -16" transform="rotate(0,202,458)"/><path d="M 210 50v 16h 16v -8a 8 8, 0, 0, 0, -8 -8" transform="rotate(-90,218,58)"/><path d="M 210 66v 16h 16v -8a 8 8, 0, 0, 0, -8 -8" transform="rotate(90,218,74)"/><path d="M 210 114v 16h 8a 8 8, 0, 0, 0, 0 -16" transform="rotate(-90,218,122)"/><rect x="210" y="130" width="16" height="16" transform="rotate(0,218,138)"/><path d="M 210 146v 16h 16v -8a 8 8, 0, 0, 0, -8 -8" transform="rotate(90,218,154)"/><path d="M 210 194v 16h 16v -8a 8 8, 0, 0, 0, -8 -8" transform="rotate(-90,218,202)"/><rect x="210" y="210" width="16" height="16" transform="rotate(0,218,218)"/><circle cx="218" cy="250" r="8" transform="rotate(0,218,250)"/><path d="M 210 274v 16h 8a 8 8, 0, 0, 0, 0 -16" transform="rotate(-90,218,282)"/><path d="M 210 290v 16h 16v -8a 8 8, 0, 0, 0, -8 -8" transform="rotate(90,218,298)"/><path d="M 210 338v 16h 8a 8 8, 0, 0, 0, 0 -16" transform="rotate(180,218,346)"/><rect x="210" y="370" width="16" height="16" transform="rotate(0,218,378)"/><path d="M 210 386v 16h 16v -8a 8 8, 0, 0, 0, -8 -8" transform="rotate(180,218,394)"/><path d="M 226 18v 16h 16v -8a 8 8, 0, 0, 0, -8 -8" transform="rotate(-90,234,26)"/><rect x="226" y="34" width="16" height="16" transform="rotate(0,234,42)"/><rect x="226" y="50" width="16" height="16" transform="rotate(0,234,58)"/><rect x="226" y="130" width="16" height="16" transform="rotate(0,234,138)"/><path d="M 226 178v 16h 16v -8a 8 8, 0, 0, 0, -8 -8" transform="rotate(-90,234,186)"/><rect x="226" y="194" width="16" height="16" transform="rotate(0,234,202)"/><rect x="226" y="210" width="16" height="16" transform="rotate(0,234,218)"/><path d="M 226 226v 16h 8a 8 8, 0, 0, 0, 0 -16" transform="rotate(90,234,234)"/><path d="M 226 258v 16h 8a 8 8, 0, 0, 0, 0 -16" transform="rotate(180,234,266)"/><rect x="226" y="338" width="16" height="16" transform="rotate(0,234,346)"/><rect x="226" y="354" width="16" height="16" transform="rotate(0,234,362)"/><rect x="226" y="370" width="16" height="16" transform="rotate(0,234,378)"/><rect x="226" y="386" width="16" height="16" transform="rotate(0,234,394)"/><path d="M 226 466v 16h 8a 8 8, 0, 0, 0, 0 -16" transform="rotate(180,234,474)"/><path d="M 242 18v 16h 8a 8 8, 0, 0, 0, 0 -16" transform="rotate(0,250,26)"/><rect x="242" y="50" width="16" height="16" transform="rotate(0,250,58)"/><path d="M 242 82v 16h 16v -8a 8 8, 0, 0, 0, -8 -8" transform="rotate(-90,250,90)"/><rect x="242" y="98" width="16" height="16" transform="rotate(0,250,106)"/><rect x="242" y="114" width="16" height="16" transform="rotate(0,250,122)"/><rect x="242" y="130" width="16" height="16" transform="rotate(0,250,138)"/><rect x="242" y="146" width="16" height="16" transform="rotate(0,250,154)"/><rect x="242" y="162" width="16" height="16" transform="rotate(0,250,170)"/><path d="M 242 178v 16h 16v -8a 8 8, 0, 0, 0, -8 -8" transform="rotate(90,250,186)"/><path d="M 242 210v 16h 8a 8 8, 0, 0, 0, 0 -16" transform="rotate(0,250,218)"/><path d="M 242 242v 16h 16v -8a 8 8, 0, 0, 0, -8 -8" transform="rotate(-90,250,250)"/><rect x="242" y="258" width="16" height="16" transform="rotate(0,250,266)"/><rect x="242" y="274" width="16" height="16" transform="rotate(0,250,282)"/><path d="M 242 290v 16h 8a 8 8, 0, 0, 0, 0 -16" transform="rotate(90,250,298)"/><path d="M 242 338v 16h 16v -8a 8 8, 0, 0, 0, -8 -8" transform="rotate(0,250,346)"/><rect x="242" y="354" width="16" height="16" transform="rotate(0,250,362)"/><rect x="242" y="386" width="16" height="16" transform="rotate(0,250,394)"/><path d="M 242 434v 16h 8a 8 8, 0, 0, 0, 0 -16" transform="rotate(-90,250,442)"/><rect x="242" y="450" width="16" height="16" transform="rotate(0,250,458)"/><path d="M 242 466v 16h 16v -8a 8 8, 0, 0, 0, -8 -8" transform="rotate(90,250,474)"/><rect x="258" y="50" width="16" height="16" transform="rotate(0,266,58)"/><rect x="258" y="66" width="16" height="16" transform="rotate(0,266,74)"/><rect x="258" y="82" width="16" height="16" transform="rotate(0,266,90)"/><rect x="258" y="98" width="16" height="16" transform="rotate(0,266,106)"/><rect x="258" y="130" width="16" height="16" transform="rotate(0,266,138)"/><path d="M 258 226v 16h 8a 8 8, 0, 0, 0, 0 -16" transform="rotate(-90,266,234)"/><path d="M 258 242v 16h 16v -8a 8 8, 0, 0, 0, -8 -8" transform="rotate(90,266,250)"/><path d="M 258 274v 16h 8a 8 8, 0, 0, 0, 0 -16" transform="rotate(0,266,282)"/><rect x="258" y="354" width="16" height="16" transform="rotate(0,266,362)"/><rect x="258" y="370" width="16" height="16" transform="rotate(0,266,378)"/><path d="M 258 386v 16h 16v -8a 8 8, 0, 0, 0, -8 -8" transform="rotate(90,266,394)"/><path d="M 274 18v 16h 8a 8 8, 0, 0, 0, 0 -16" transform="rotate(-90,282,26)"/><rect x="274" y="34" width="16" height="16" transform="rotate(0,282,42)"/><rect x="274" y="50" width="16" height="16" transform="rotate(0,282,58)"/><path d="M 274 82v 16h 16v -8a 8 8, 0, 0, 0, -8 -8" transform="rotate(0,282,90)"/><rect x="274" y="98" width="16" height="16" transform="rotate(0,282,106)"/><rect x="274" y="114" width="16" height="16" transform="rotate(0,282,122)"/><rect x="274" y="130" width="16" height="16" transform="rotate(0,282,138)"/><path d="M 274 162v 16h 8a 8 8, 0, 0, 0, 0 -16" transform="rotate(-90,282,170)"/><path d="M 274 178v 16h 8a 8 8, 0, 0, 0, 0 -16" transform="rotate(90,282,186)"/><path d="M 274 322v 16h 16v -8a 8 8, 0, 0, 0, -8 -8" transform="rotate(-90,282,330)"/><rect x="274" y="338" width="16" height="16" transform="rotate(0,282,346)"/><rect x="274" y="354" width="16" height="16" transform="rotate(0,282,362)"/><circle cx="282" cy="426" r="8" transform="rotate(0,282,426)"/><path d="M 274 450v 16h 16v -8a 8 8, 0, 0, 0, -8 -8" transform="rotate(-90,282,458)"/><path d="M 274 466v 16h 16v -8a 8 8, 0, 0, 0, -8 -8" transform="rotate(180,282,474)"/><path d="M 290 50v 16h 16v -8a 8 8, 0, 0, 0, -8 -8" transform="rotate(0,298,58)"/><path d="M 290 66v 16h 16v -8a 8 8, 0, 0, 0, -8 -8" transform="rotate(180,298,74)"/><rect x="290" y="130" width="16" height="16" transform="rotate(0,298,138)"/><path d="M 290 210v 16h 16v -8a 8 8, 0, 0, 0, -8 -8" transform="rotate(-90,298,218)"/><path d="M 290 226v 16h 8a 8 8, 0, 0, 0, 0 -16" transform="rotate(90,298,234)"/><circle cx="298" cy="266" r="8" transform="rotate(0,298,266)"/><circle cx="298" cy="298" r="8" transform="rotate(0,298,298)"/><rect x="290" y="322" width="16" height="16" transform="rotate(0,298,330)"/><rect x="290" y="338" width="16" height="16" transform="rotate(0,298,346)"/><rect x="290" y="354" width="16" height="16" transform="rotate(0,298,362)"/><path d="M 290 434v 16h 8a 8 8, 0, 0, 0, 0 -16" transform="rotate(-90,298,442)"/><rect x="290" y="450" width="16" height="16" transform="rotate(0,298,458)"/><rect x="290" y="466" width="16" height="16" transform="rotate(0,298,474)"/><circle cx="314" cy="26" r="8" transform="rotate(0,314,26)"/><rect x="306" y="66" width="16" height="16" transform="rotate(0,314,74)"/><path d="M 306 114v 16h 8a 8 8, 0, 0, 0, 0 -16" transform="rotate(-90,314,122)"/><rect x="306" y="130" width="16" height="16" transform="rotate(0,314,138)"/><rect x="306" y="146" width="16" height="16" transform="rotate(0,314,154)"/><rect x="306" y="162" width="16" height="16" transform="rotate(0,314,170)"/><rect x="306" y="178" width="16" height="16" transform="rotate(0,314,186)"/><rect x="306" y="194" width="16" height="16" transform="rotate(0,314,202)"/><rect x="306" y="210" width="16" height="16" transform="rotate(0,314,218)"/><path d="M 306 322v 16h 16v -8a 8 8, 0, 0, 0, -8 -8" transform="rotate(0,314,330)"/><rect x="306" y="338" width="16" height="16" transform="rotate(0,314,346)"/><path d="M 306 354v 16h 16v -8a 8 8, 0, 0, 0, -8 -8" transform="rotate(90,314,362)"/><circle cx="314" cy="394" r="8" transform="rotate(0,314,394)"/><rect x="306" y="450" width="16" height="16" transform="rotate(0,314,458)"/><rect x="306" y="466" width="16" height="16" transform="rotate(0,314,474)"/><circle cx="330" cy="42" r="8" transform="rotate(0,330,42)"/><rect x="322" y="66" width="16" height="16" transform="rotate(0,330,74)"/><circle cx="330" cy="106" r="8" transform="rotate(0,330,106)"/><rect x="322" y="130" width="16" height="16" transform="rotate(0,330,138)"/><path d="M 322 162v 16h 16v -8a 8 8, 0, 0, 0, -8 -8" transform="rotate(0,330,170)"/><path d="M 322 178v 16h 16v -8a 8 8, 0, 0, 0, -8 -8" transform="rotate(90,330,186)"/><rect x="322" y="210" width="16" height="16" transform="rotate(0,330,218)"/><path d="M 322 226v 16h 8a 8 8, 0, 0, 0, 0 -16" transform="rotate(90,330,234)"/><circle cx="330" cy="266" r="8" transform="rotate(0,330,266)"/><path d="M 322 290v 16h 16v -8a 8 8, 0, 0, 0, -8 -8" transform="rotate(-90,330,298)"/><path d="M 322 306v 16h 8a 8 8, 0, 0, 0, 0 -16" transform="rotate(90,330,314)"/><rect x="322" y="338" width="16" height="16" transform="rotate(0,330,346)"/><path d="M 322 370v 16h 8a 8 8, 0, 0, 0, 0 -16" transform="rotate(180,330,378)"/><path d="M 322 402v 16h 8a 8 8, 0, 0, 0, 0 -16" transform="rotate(180,330,410)"/><rect x="322" y="450" width="16" height="16" transform="rotate(0,330,458)"/><rect x="322" y="466" width="16" height="16" transform="rotate(0,330,474)"/><circle cx="346" cy="26" r="8" transform="rotate(0,346,26)"/><path d="M 338 50v 16h 8a 8 8, 0, 0, 0, 0 -16" transform="rotate(-90,346,58)"/><path d="M 338 66v 16h 16v -8a 8 8, 0, 0, 0, -8 -8" transform="rotate(90,346,74)"/><path d="M 338 114v 16h 8a 8 8, 0, 0, 0, 0 -16" transform="rotate(-90,346,122)"/><path d="M 338 130v 16h 16v -8a 8 8, 0, 0, 0, -8 -8" transform="rotate(90,346,138)"/><path d="M 338 194v 16h 16v -8a 8 8, 0, 0, 0, -8 -8" transform="rotate(-90,346,202)"/><path d="M 338 210v 16h 16v -8a 8 8, 0, 0, 0, -8 -8" transform="rotate(90,346,218)"/><path d="M 338 242v 16h 8a 8 8, 0, 0, 0, 0 -16" transform="rotate(180,346,250)"/><rect x="338" y="290" width="16" height="16" transform="rotate(0,346,298)"/><path d="M 338 322v 16h 8a 8 8, 0, 0, 0, 0 -16" transform="rotate(-90,346,330)"/><rect x="338" y="338" width="16" height="16" transform="rotate(0,346,346)"/><rect x="338" y="354" width="16" height="16" transform="rotate(0,346,362)"/><rect x="338" y="370" width="16" height="16" transform="rotate(0,346,378)"/><rect x="338" y="386" width="16" height="16" transform="rotate(0,346,394)"/><rect x="338" y="402" width="16" height="16" transform="rotate(0,346,410)"/><rect x="338" y="450" width="16" height="16" transform="rotate(0,346,458)"/><rect x="338" y="466" width="16" height="16" transform="rotate(0,346,474)"/><path d="M 354 146v 16h 16v -8a 8 8, 0, 0, 0, -8 -8" transform="rotate(-90,362,154)"/><rect x="354" y="162" width="16" height="16" transform="rotate(0,362,170)"/><rect x="354" y="178" width="16" height="16" transform="rotate(0,362,186)"/><rect x="354" y="194" width="16" height="16" transform="rotate(0,362,202)"/><path d="M 354 242v 16h 8a 8 8, 0, 0, 0, 0 -16" transform="rotate(0,362,250)"/><path d="M 354 274v 16h 8a 8 8, 0, 0, 0, 0 -16" transform="rotate(-90,362,282)"/><path d="M 354 290v 16h 16v -8a 8 8, 0, 0, 0, -8 -8" transform="rotate(90,362,298)"/><rect x="354" y="338" width="16" height="16" transform="rotate(0,362,346)"/><rect x="354" y="402" width="16" height="16" transform="rotate(0,362,410)"/><rect x="354" y="450" width="16" height="16" transform="rotate(0,362,458)"/><rect x="354" y="466" width="16" height="16" transform="rotate(0,362,474)"/><path d="M 370 146v 16h 8a 8 8, 0, 0, 0, 0 -16" transform="rotate(0,378,154)"/><path d="M 370 178v 16h 16v -8a 8 8, 0, 0, 0, -8 -8" transform="rotate(0,378,186)"/><rect x="370" y="194" width="16" height="16" transform="rotate(0,378,202)"/><rect x="370" y="210" width="16" height="16" transform="rotate(0,378,218)"/><path d="M 370 226v 16h 16v -8a 8 8, 0, 0, 0, -8 -8" transform="rotate(180,378,234)"/><path d="M 370 306v 16h 16v -8a 8 8, 0, 0, 0, -8 -8" transform="rotate(-90,378,314)"/><rect x="370" y="322" width="16" height="16" transform="rotate(0,378,330)"/><rect x="370" y="338" width="16" height="16" transform="rotate(0,378,346)"/><circle cx="378" cy="378" r="8" transform="rotate(0,378,378)"/><rect x="370" y="402" width="16" height="16" transform="rotate(0,378,410)"/><path d="M 370 434v 16h 8a 8 8, 0, 0, 0, 0 -16" transform="rotate(-90,378,442)"/><rect x="370" y="450" width="16" height="16" transform="rotate(0,378,458)"/><path d="M 370 466v 16h 16v -8a 8 8, 0, 0, 0, -8 -8" transform="rotate(90,378,474)"/><rect x="386" y="210" width="16" height="16" transform="rotate(0,394,218)"/><rect x="386" y="226" width="16" height="16" transform="rotate(0,394,234)"/><path d="M 386 242v 16h 8a 8 8, 0, 0, 0, 0 -16" transform="rotate(90,394,250)"/><path d="M 386 290v 16h 8a 8 8, 0, 0, 0, 0 -16" transform="rotate(-90,394,298)"/><rect x="386" y="306" width="16" height="16" transform="rotate(0,394,314)"/><rect x="386" y="338" width="16" height="16" transform="rotate(0,394,346)"/><rect x="386" y="402" width="16" height="16" transform="rotate(0,394,410)"/><rect x="386" y="450" width="16" height="16" transform="rotate(0,394,458)"/><circle cx="410" cy="154" r="8" transform="rotate(0,410,154)"/><circle cx="410" cy="186" r="8" transform="rotate(0,410,186)"/><path d="M 402 210v 16h 16v -8a 8 8, 0, 0, 0, -8 -8" transform="rotate(0,410,218)"/><rect x="402" y="226" width="16" height="16" transform="rotate(0,410,234)"/><path d="M 402 274v 16h 8a 8 8, 0, 0, 0, 0 -16" transform="rotate(180,410,282)"/><rect x="402" y="306" width="16" height="16" transform="rotate(0,410,314)"/><rect x="402" y="338" width="16" height="16" transform="rotate(0,410,346)"/><rect x="402" y="354" width="16" height="16" transform="rotate(0,410,362)"/><rect x="402" y="370" width="16" height="16" transform="rotate(0,410,378)"/><rect x="402" y="386" width="16" height="16" transform="rotate(0,410,394)"/><rect x="402" y="402" width="16" height="16" transform="rotate(0,410,410)"/><path d="M 402 418v 16h 16v -8a 8 8, 0, 0, 0, -8 -8" transform="rotate(180,410,426)"/><path d="M 402 450v 16h 16v -8a 8 8, 0, 0, 0, -8 -8" transform="rotate(0,410,458)"/><path d="M 402 466v 16h 8a 8 8, 0, 0, 0, 0 -16" transform="rotate(90,410,474)"/><path d="M 418 162v 16h 8a 8 8, 0, 0, 0, 0 -16" transform="rotate(180,426,170)"/><rect x="418" y="226" width="16" height="16" transform="rotate(0,426,234)"/><rect x="418" y="242" width="16" height="16" transform="rotate(0,426,250)"/><rect x="418" y="258" width="16" height="16" transform="rotate(0,426,266)"/><rect x="418" y="274" width="16" height="16" transform="rotate(0,426,282)"/><rect x="418" y="290" width="16" height="16" transform="rotate(0,426,298)"/><rect x="418" y="306" width="16" height="16" transform="rotate(0,426,314)"/><path d="M 418 338v 16h 16v -8a 8 8, 0, 0, 0, -8 -8" transform="rotate(0,426,346)"/><path d="M 418 354v 16h 16v -8a 8 8, 0, 0, 0, -8 -8" transform="rotate(90,426,362)"/><rect x="418" y="402" width="16" height="16" transform="rotate(0,426,410)"/><rect x="418" y="418" width="16" height="16" transform="rotate(0,426,426)"/><path d="M 434 146v 16h 16v -8a 8 8, 0, 0, 0, -8 -8" transform="rotate(-90,442,154)"/><rect x="434" y="162" width="16" height="16" transform="rotate(0,442,170)"/><rect x="434" y="178" width="16" height="16" transform="rotate(0,442,186)"/><path d="M 434 194v 16h 8a 8 8, 0, 0, 0, 0 -16" transform="rotate(90,442,202)"/><path d="M 434 226v 16h 8a 8 8, 0, 0, 0, 0 -16" transform="rotate(0,442,234)"/><path d="M 434 258v 16h 16v -8a 8 8, 0, 0, 0, -8 -8" transform="rotate(0,442,266)"/><rect x="434" y="274" width="16" height="16" transform="rotate(0,442,282)"/><rect x="434" y="306" width="16" height="16" transform="rotate(0,442,314)"/><path d="M 434 322v 16h 8a 8 8, 0, 0, 0, 0 -16" transform="rotate(90,442,330)"/><path d="M 434 386v 16h 16v -8a 8 8, 0, 0, 0, -8 -8" transform="rotate(-90,442,394)"/><rect x="434" y="402" width="16" height="16" transform="rotate(0,442,410)"/><path d="M 434 418v 16h 16v -8a 8 8, 0, 0, 0, -8 -8" transform="rotate(90,442,426)"/><circle cx="442" cy="474" r="8" transform="rotate(0,442,474)"/><path d="M 450 146v 16h 8a 8 8, 0, 0, 0, 0 -16" transform="rotate(0,458,154)"/><circle cx="458" cy="218" r="8" transform="rotate(0,458,218)"/><path d="M 450 274v 16h 16v -8a 8 8, 0, 0, 0, -8 -8" transform="rotate(0,458,282)"/><rect x="450" y="290" width="16" height="16" transform="rotate(0,458,298)"/><path d="M 450 306v 16h 16v -8a 8 8, 0, 0, 0, -8 -8" transform="rotate(90,458,314)"/><path d="M 450 354v 16h 8a 8 8, 0, 0, 0, 0 -16" transform="rotate(180,458,362)"/><path d="M 450 386v 16h 8a 8 8, 0, 0, 0, 0 -16" transform="rotate(0,458,394)"/><path d="M 450 450v 16h 8a 8 8, 0, 0, 0, 0 -16" transform="rotate(180,458,458)"/><path d="M 466 226v 16h 8a 8 8, 0, 0, 0, 0 -16" transform="rotate(-90,474,234)"/><rect x="466" y="242" width="16" height="16" transform="rotate(0,474,250)"/><path d="M 466 258v 16h 8a 8 8, 0, 0, 0, 0 -16" transform="rotate(90,474,266)"/><path d="M 466 290v 16h 8a 8 8, 0, 0, 0, 0 -16" transform="rotate(0,474,298)"/><path d="M 466 338v 16h 8a 8 8, 0, 0, 0, 0 -16" transform="rotate(-90,474,346)"/><rect x="466" y="354" width="16" height="16" transform="rotate(0,474,362)"/><path d="M 466 370v 16h 8a 8 8, 0, 0, 0, 0 -16" transform="rotate(90,474,378)"/><circle cx="474" cy="410" r="8" transform="rotate(0,474,410)"/><path d="M 466 450v 16h 16v -8a 8 8, 0, 0, 0, -8 -8" transform="rotate(0,474,458)"/><path d="M 466 466v 16h 8a 8 8, 0, 0, 0, 0 -16" transform="rotate(90,474,474)"/></clipPath><clipPath id="clip-path-corners-square-color-0-0"><path clip-rule="evenodd" d="M 74 18a 56 56 0 1 0 0.1 0zm 0 16a 40 40 0 1 1 -0.1 0Z" transform="rotate(0,74,74)"/></clipPath><clipPath id="clip-path-corners-dot-color-0-0"><circle cx="74" cy="74" r="24" transform="rotate(0,74,74)"/></clipPath><clipPath id="clip-path-corners-square-color-1-0"><path clip-rule="evenodd" d="M 426 18a 56 56 0 1 0 0.1 0zm 0 16a 40 40 0 1 1 -0.1 0Z" transform="rotate(90,426,74)"/></clipPath><clipPath id="clip-path-corners-dot-color-1-0"><circle cx="426" cy="74" r="24" transform="rotate(90,426,74)"/></clipPath><clipPath id="clip-path-corners-square-color-0-1"><path clip-rule="evenodd" d="M 74 370a 56 56 0 1 0 0.1 0zm 0 16a 40 40 0 1 1 -0.1 0Z" transform="rotate(-90,74,426)"/></clipPath><clipPath id="clip-path-corners-dot-color-0-1"><circle cx="74" cy="426" r="24" transform="rotate(-90,74,426)"/></clipPath></defs><rect x="0" y="0" height="500" width="500" clip-path="url('#clip-path-background-color')" fill="#fff"/><rect x="0" y="0" height="500" width="500" clip-path="url('#clip-path-dot-color')" fill="#000000"/><rect x="18" y="18" height="112" width="112" clip-path="url('#clip-path-corners-square-color-0-0')" fill="#000000"/><rect x="50" y="50" height="48" width="48" clip-path="url('#clip-path-corners-dot-color-0-0')" fill="#000000"/><rect x="370" y="18" height="112" width="112" clip-path="url('#clip-path-corners-square-color-1-0')" fill="#000000"/><rect x="402" y="50" height="48" width="48" clip-path="url('#clip-path-corners-dot-color-1-0')" fill="#000000"/><rect x="18" y="370" height="112" width="112" clip-path="url('#clip-path-corners-square-color-0-1')" fill="#000000"/><rect x="50" y="402" height="48" width="48" clip-path="url('#clip-path-corners-dot-color-0-1')" fill="#000000"/></svg>